<svg width="24" height="24" viewBox="0 0 24 24" fill="none" xmlns="http://www.w3.org/2000/svg">
<path opacity="0.1" fill-rule="evenodd" clip-rule="evenodd" d="M0 12C0 5.37258 5.37258 0 12 0C18.6274 0 24 5.37258 24 12C24 18.6274 18.6274 24 12 24C5.37258 24 0 18.6274 0 12Z" fill="black"/>
<path d="M16.8 15.75H15.6V10.2812L12 12.625L8.4 10.2812V15.75H7.2V8.25H7.92L12 10.9062L16.08 8.25H16.8V15.75ZM16.8 7H7.2C6.534 7 6 7.55625 6 8.25V15.75C6 16.0815 6.12643 16.3995 6.35147 16.6339C6.57652 16.8683 6.88174 17 7.2 17H16.8C17.1183 17 17.4235 16.8683 17.6485 16.6339C17.8736 16.3995 18 16.0815 18 15.75V8.25C18 7.91848 17.8736 7.60054 17.6485 7.36612C17.4235 7.1317 17.1183 7 16.8 7Z" fill="black"/>
</svg>
